name D:\school\WTK\thesis\model\3dpredictsim\Results\Batchsim_tmt_linear_v2\Pog_s1_tmt_bCst_d02_k2000_ig24.mot
datacolumns 128
datarows 4
range 1.54940335 1.58039141
endheader
time	pelvis_tilt	pelvis_list	pelvis_rotation	pelvis_tx	pelvis_ty	pelvis_tz	hip_flexion_l	hip_adduction_l	hip_rotation_l	hip_flexion_r	hip_adduction_r	hip_rotation_r	knee_angle_l	knee_angle_r	ankle_angle_l	ankle_angle_r	subtalar_angle_l	subtalar_angle_r	tmt_angle_l	tmt_angle_r	mtp_angle_l	mtp_angle_r	lumbar_extension	lumbar_bending	lumbar_rotation	arm_flex_l	arm_add_l	arm_rot_l	arm_flex_r	arm_add_r	arm_rot_r	elbow_flex_l	elbow_flex_r	pro_sup_l	pro_sup_r	glut_med1_l/activation	glut_med2_l/activation	glut_med3_l/activation	glut_min1_l/activation	glut_min2_l/activation	glut_min3_l/activation	semimem_l/activation	semiten_l/activation	bifemlh_l/activation	bifemsh_l/activation	sar_l/activation	add_long_l/activation	add_brev_l/activation	add_mag1_l/activation	add_mag2_l/activation	add_mag3_l/activation	tfl_l/activation	pect_l/activation	grac_l/activation	glut_max1_l/activation	glut_max2_l/activation	glut_max3_l/activation	iliacus_l/activation	psoas_l/activation	quad_fem_l/activation	gem_l/activation	peri_l/activation	rect_fem_l/activation	vas_med_l/activation	vas_int_l/activation	vas_lat_l/activation	med_gas_l/activation	lat_gas_l/activation	soleus_l/activation	tib_post_l/activation	flex_dig_l/activation	flex_hal_l/activation	tib_ant_l/activation	per_brev_l/activation	per_long_l/activation	per_tert_l/activation	ext_dig_l/activation	ext_hal_l/activation	ercspn_l/activation	intobl_l/activation	extobl_l/activation	glut_med1_r/activation	glut_med2_r/activation	glut_med3_r/activation	glut_min1_r/activation	glut_min2_r/activation	glut_min3_r/activation	semimem_r/activation	semiten_r/activation	bifemlh_r/activation	bifemsh_r/activation	sar_r/activation	add_long_r/activation	add_brev_r/activation	add_mag1_r/activation	add_mag2_r/activation	add_mag3_r/activation	tfl_r/activation	pect_r/activation	grac_r/activation	glut_max1_r/activation	glut_max2_r/activation	glut_max3_r/activation	iliacus_r/activation	psoas_r/activation	quad_fem_r/activation	gem_r/activation	peri_r/activation	rect_fem_r/activation	vas_med_r/activation	vas_int_r/activation	vas_lat_r/activation	med_gas_r/activation	lat_gas_r/activation	soleus_r/activation	tib_post_r/activation	flex_dig_r/activation	flex_hal_r/activation	tib_ant_r/activation	per_brev_r/activation	per_long_r/activation	per_tert_r/activation	ext_dig_r/activation	ext_hal_r/activation	ercspn_r/activation	intobl_r/activation	extobl_r/activation	
          1.54940335	         -1.67960300	         -1.09592355	         -4.25802169	          1.93675418	          0.87525731	          0.00151631	         25.35437433	         -0.48522128	         -3.60812824	        -18.89498879	          1.65448194	          4.68262007	         -8.74157670	         -4.12894284	          5.63519402	         -7.80489707	          5.40493987	          6.58795726	          0.01814763	          0.54581319	         -0.11747318	         25.89473698	         -0.43473539	          3.32776304	          1.32834087	         -7.75508536	        -13.45214608	         15.09734089	          3.83580549	        -13.47030105	         11.45168965	         16.21331846	         20.26802273	         86.51662706	         86.51662706	          0.05000010	          0.06869767	          0.09918986	          0.05000008	          0.05000014	          0.06830240	          0.06869740	          0.05861012	          0.06869761	          0.05000047	          0.05000023	          0.05000007	          0.05000019	          0.13692310	          0.13848274	          0.13537381	          0.05000072	          0.05000038	          0.05771125	          0.05860804	          0.07235171	          0.15004788	          0.05000001	          0.05000002	          0.05866529	          0.05000017	          0.05000044	          0.05000010	          0.05000184	          0.05575220	          0.05000073	          0.05000001	          0.05000003	          0.05000000	          0.05516038	          0.05860788	          0.05860783	          0.43772424	          0.25942852	          0.17508800	          0.16649029	          0.44237052	          0.22328433	          0.05515379	          0.15814085	          0.14944741	          0.30956106	          0.09438683	          0.08052413	          0.27236485	          0.15854651	          0.09438682	          0.05000039	          0.05000006	          0.05000006	          0.05000009	          0.09409644	          0.05000002	          0.05000002	          0.05000005	          0.05000024	          0.05000024	          0.22747565	          0.05000010	          0.05000009	          0.05031181	          0.05000687	          0.05000071	          0.36195938	          0.65699120	          0.05000010	          0.05387302	          0.07449658	          0.27624786	          0.05016699	          0.05752019	          0.05004378	          0.19375578	          0.28306679	          0.20186401	          0.21931815	          0.19805023	          0.27804622	          0.05000001	          0.07637043	          0.13433862	          0.05000009	          0.05000002	          0.05000009	          0.05000000	          0.05000000	          0.05000000	
          1.55973270	         -1.66949912	         -1.16763718	         -4.41028284	          1.95245420	          0.87399194	          0.00142391	         24.90431251	         -0.36750684	         -3.38913708	        -18.84229867	          1.54369238	          4.46541735	         -8.51354508	         -5.94296022	          5.21995720	         -8.39124790	          4.98355454	          7.47972478	          0.01984334	          0.51964813	         -0.09289841	         26.82278046	         -0.25917129	          3.17607290	          1.37884487	         -8.76880745	        -13.44993116	         15.04151172	          3.71787957	        -13.49650257	         11.73442704	         16.24444988	         20.93045218	         86.51662706	         86.51662706	          0.05860780	          0.05860806	          0.24080351	          0.05860804	          0.05860788	          0.05860428	          0.05860781	          0.05000202	          0.05860796	          0.05000007	          0.05000028	          0.09438683	          0.15107048	          0.12335160	          0.16981646	          0.15530157	          0.05000004	          0.06869962	          0.05000076	          0.05000024	          0.06172534	          0.18162186	          0.05860782	          0.05000053	          0.05004906	          0.11060974	          0.10116492	          0.05752815	          0.20184820	          0.20199296	          0.17576874	          0.05000001	          0.05000002	          0.05014570	          0.05000000	          0.05000010	          0.05000008	          0.56718150	          0.26542291	          0.14937267	          0.46765892	          0.52758394	          0.31850643	          0.05000003	          0.13491452	          0.12749789	          0.26409551	          0.08052413	          0.06869747	          0.23236234	          0.13526061	          0.08052413	          0.05000021	          0.05000005	          0.05000004	          0.05000007	          0.08027648	          0.11883945	          0.07876776	          0.05005790	          0.05000124	          0.05000020	          0.19406606	          0.05862905	          0.05001359	          0.05000049	          0.05000032	          0.05000042	          0.30879801	          0.58336695	          0.05860495	          0.05000018	          0.06355521	          0.23567502	          0.11160006	          0.10874632	          0.08262945	          0.16529865	          0.24149246	          0.19554379	          0.19883707	          0.16896331	          0.23720971	          0.05000000	          0.06515402	          0.13691664	          0.05000005	          0.05000001	          0.05000004	          0.05000001	          0.05000010	          0.05603541	
          1.57006206	         -1.65268495	         -1.22092508	         -4.53928098	          1.96845225	          0.87269062	          0.00132513	         24.36629382	         -0.25566108	         -3.13870233	        -18.67304356	          1.41688559	          4.23771529	         -8.88730788	         -7.98293378	          4.56887688	         -9.00675167	          4.55861354	          8.37852353	          0.01182619	          0.47580825	         -0.04701203	         27.51038499	         -0.06046591	          2.98998255	          1.42476476	         -9.80261348	        -13.45195537	         14.99127028	          3.52523476	        -13.53068747	         12.00187854	         16.28633988	         21.59771098	         86.51662706	         86.51662706	          0.05000002	          0.05000029	          0.20543644	          0.05000022	          0.05000010	          0.05000009	          0.05000002	          0.05000004	          0.05000015	          0.05000001	          0.05000006	          0.08052415	          0.12888260	          0.19206037	          0.19056128	          0.15632032	          0.05860804	          0.05860974	          0.05860747	          0.10310920	          0.10758757	          0.15494690	          0.05000004	          0.05000013	          0.15202686	          0.09436439	          0.08630673	          0.06869747	          0.22329514	          0.23851382	          0.18329587	          0.05000005	          0.05000017	          0.05000000	          0.05860779	          0.06711922	          0.06869698	          0.48387889	          0.31144303	          0.17446078	          0.39897335	          0.45009708	          0.27172703	          0.05000000	          0.11509947	          0.10877213	          0.22530751	          0.06869747	          0.05860781	          0.19823505	          0.11539474	          0.06869748	          0.05000257	          0.05000015	          0.05000043	          0.05000002	          0.06848624	          0.16856524	          0.20158974	          0.05974080	          0.05860682	          0.05862656	          0.16556337	          0.05001823	          0.05000031	          0.05860639	          0.05860764	          0.05860783	          0.26344449	          0.51402833	          0.05860779	          0.05860783	          0.05446324	          0.20106115	          0.12278142	          0.15200781	          0.15200297	          0.14102104	          0.20602419	          0.16682405	          0.16963368	          0.14414759	          0.20237052	          0.05000001	          0.05558480	          0.14630342	          0.05000003	          0.05000001	          0.05000007	          0.05000000	          0.06869744	          0.07212091	
          1.58039141	         -1.63102260	         -1.25517749	         -4.64482160	          1.98462965	          0.87132660	          0.00122863	         23.70537499	         -0.17357001	         -2.87469138	        -18.40541878	          1.27760340	          4.00198169	         -9.58092947	        -10.20319415	          4.06851181	         -9.60531448	          4.11299275	          9.25045596	         -0.00435823	          0.41271895	         -0.18156102	         27.78324924	          0.15005517	          2.77296743	          1.46307172	        -10.83091553	        -13.46267673	         14.98496683	          3.27599965	        -13.57005158	         12.23937753	         16.31983389	         22.27087520	         86.51662706	         86.51662706	          0.21809730	          0.22655574	          0.34609696	          0.27151942	          0.21945958	          0.20082628	          0.06869786	          0.05000049	          0.06911124	          0.08052381	          0.06276131	          0.06869748	          0.10995347	          0.16385225	          0.16257335	          0.14957753	          0.05000028	          0.05000177	          0.05000009	          0.16870661	          0.14720093	          0.13218985	          0.05000093	          0.05000021	          0.12969851	          0.08052734	          0.18537465	          0.05860779	          0.19049953	          0.20348303	          0.15637500	          0.05000032	          0.05000062	          0.05000009	          0.05000001	          0.05860778	          0.05860771	          0.55310512	          0.27424973	          0.14883760	          0.59530316	          0.54455622	          0.31728291	          0.05000000	          0.09819468	          0.09279664	          0.25616842	          0.05860779	          0.05000002	          0.22704196	          0.09844659	          0.05860781	          0.05000091	          0.05000007	          0.05000005	          0.05000018	          0.05861806	          0.16885098	          0.19106383	          0.05096675	          0.05000078	          0.05001608	          0.14124692	          0.09270801	          0.05000034	          0.05000023	          0.05000018	          0.05000024	          0.22475211	          0.48338476	          0.05000002	          0.05000009	          0.05000002	          0.17153107	          0.10474839	          0.12968226	          0.12967814	          0.12030912	          0.17576518	          0.14232241	          0.14471940	          0.12297652	          0.17264817	          0.05000001	          0.12402165	          0.13298385	          0.05000018	          0.11786365	          0.05000013	          0.05445658	          0.05860777	          0.06152843	
